<svg width="256" height="256" viewBox="0 0 256 256" fill="none" xmlns="http://www.w3.org/2000/svg">
<path d="M229.9 70.7999H229.8C228.382 68.3176 226.306 66.2757 223.8 64.8999L135.8 15.3999C133.416 14.0687 130.731 13.3699 128 13.3699C125.269 13.3699 122.584 14.0687 120.2 15.3999L32.2 64.8999C29.7152 66.3037 27.6454 68.3391 26.2 70.7999C26.2 70.8264 26.1895 70.8519 26.1707 70.8706C26.152 70.8894 26.1265 70.8999 26.1 70.8999V71.0999C24.7348 73.4006 24.0097 76.0246 24 78.6999V177.3C24.0051 180.15 24.7669 182.949 26.2076 185.408C27.6482 187.868 29.7162 189.901 32.2 191.3L120.2 240.8C122.415 242.008 124.879 242.693 127.4 242.8H128.7C131.19 242.692 133.62 242.007 135.8 240.8L223.8 191.3C226.284 189.901 228.352 187.868 229.792 185.408C231.233 182.949 231.995 180.15 232 177.3V78.6999C232.015 75.9267 231.29 73.1998 229.9 70.7999ZM120.1 222.4L88 204.3V153.9C87.9953 152.488 87.6126 151.104 86.8915 149.89C86.1705 148.677 85.1375 147.679 83.9 147L40 122.2V87.5999L120.9 132.7L120.1 222.4ZM128.9 118.8L48.4 73.9999L79 56.6999L124.1 81.9999C125.275 82.7153 126.624 83.0937 128 83.0937C129.376 83.0937 130.725 82.7153 131.9 81.9999L177 56.6999L207.7 73.9999L128.9 118.8ZM216 122.2L172.1 147C170.863 147.679 169.83 148.677 169.108 149.89C168.387 151.104 168.005 152.488 168 153.9V204.3L136.1 222.3L136.9 132.7L216 87.6999V122.2Z" fill="#17B7EA"/>
</svg>
